<svg width="159" height="206" viewBox="0 0 159 206" fill="none" xmlns="http://www.w3.org/2000/svg">
<path d="M73.1945 84.9468C63.451 76.726 54.5106 67.6066 46.4991 57.7083C36.5486 65.0132 25.9041 71.4371 14.6699 76.8443C21.459 87.4461 29.2654 97.3365 37.9592 106.394C50.5091 100.493 62.3027 93.2769 73.1945 84.9468" fill="url(#paint0_linear_8:6)"/>
<path d="M31.1209 159.316C45.2644 155.518 58.9707 150.179 71.6363 143.463C58.7797 135.495 46.876 126.152 36.1791 115.597C25.3276 120.336 13.9793 124.139 2.22975 126.926C10.6832 138.781 20.2362 149.656 31.1209 159.316Z" fill="url(#paint1_linear_8:6)"/>
<path d="M79.3279 139.15V139.15C92.2494 131.525 104.191 122.442 114.944 112.141C102.259 105.965 89.7854 99.5034 79.3279 92.4545V92.4553C68.8701 99.5042 56.397 105.966 43.7118 112.142C54.4647 122.443 66.4064 131.526 79.3279 139.15Z" fill="url(#paint2_linear_8:6)"/>
<path d="M61.5671 190.135C50.0842 183.706 39.2912 176.21 29.3462 167.745C23 169.31 16.5324 170.563 9.96836 171.518C10.4544 172.259 10.9962 172.96 11.5059 173.684C15.7152 179.385 27.9372 194.398 39.9434 194.398C54.7628 194.398 61.5162 190.133 61.5162 190.133L61.5671 190.135" fill="url(#paint3_linear_8:6)"/>
<path d="M74.3265 21.4771C70.4507 16.6556 66.8215 11.6339 63.4009 6.46503C63.4009 6.46503 43.2812 23.9025 43.7152 41.0474C45.0829 43.0333 46.4238 45.0395 47.8653 46.9703C57.4819 39.3207 66.3414 30.7834 74.3265 21.4771Z" fill="url(#paint4_linear_8:6)"/>
<path d="M79.325 16.8304V16.83C81.8795 13.595 84.3227 10.2692 86.7146 6.90791C87.3024 1.54723 79.325 0.491535 79.325 0.491535V0.491923C79.325 0.491923 71.3475 1.54801 71.9353 6.9083C74.3272 10.2699 76.7704 13.5955 79.325 16.8304" fill="url(#paint5_linear_8:6)"/>
<path d="M22.1886 161.346C14.6956 154.326 7.8357 146.676 1.51389 138.589C1.44943 138.567 1.37575 138.565 1.3293 138.507C0.779164 137.806 0.0432425 138.343 0 139.173C1.20559 145.029 4.24056 157.208 9.08493 159.969C14.6976 163.169 20.7356 161.759 22.1886 161.346Z" fill="url(#paint6_linear_8:6)"/>
<path d="M11.3268 116.53C17.8689 114.583 24.2848 112.345 30.5105 109.733C22.9082 101.599 16.0351 92.8032 9.8746 83.5C9.76209 83.3837 9.64357 83.2463 9.50704 83.0414C8.25741 81.1651 5.41222 81.9182 5.26528 84.4775C4.41164 93.866 2.98583 118.18 11.3268 116.53Z" fill="url(#paint7_linear_8:6)"/>
<path d="M41.7573 51.6615C38.3704 47.1322 35.2405 42.41 32.2492 37.5948C32.1703 37.5352 32.0874 37.4503 31.9957 37.3038C30.9491 35.6303 29.1521 36.2429 28.5531 37.2053C25.5222 43.1969 19.2836 56.8602 20.9521 64.9219C28.176 60.9234 35.1368 56.5116 41.7573 51.6615" fill="url(#paint8_linear_8:6)"/>
<path d="M85.4567 84.9472C96.3486 93.2769 108.142 100.493 120.692 106.394C129.386 97.3369 137.192 87.4461 143.981 76.8447C132.747 71.4371 122.103 65.0132 112.152 57.7083C104.141 67.607 95.2003 76.726 85.4567 84.9472" fill="url(#paint9_linear_8:6)"/>
<path d="M156.422 126.926C144.672 124.139 133.324 120.336 122.473 115.596C111.776 126.151 99.8721 135.494 87.0155 143.463C99.6811 150.178 113.387 155.518 127.531 159.316C138.416 149.656 147.968 138.781 156.422 126.926" fill="url(#paint10_linear_8:6)"/>
<path d="M79.3266 80.0866C89.109 71.9602 98.059 62.885 106.056 53.0176C96.3713 45.3236 88.0672 38.2093 79.3266 29.9991V29.9999C70.586 38.2101 62.2819 45.324 52.5976 53.018C60.5942 62.8858 69.5442 71.9607 79.3266 80.087V80.0866" fill="url(#paint11_linear_8:6)"/>
<path d="M97.086 190.135L97.1369 190.133C97.1369 190.133 103.89 194.398 118.71 194.398C130.716 194.398 142.938 179.385 147.147 173.684C147.657 172.959 148.199 172.259 148.685 171.518C142.121 170.563 135.653 169.31 129.307 167.745C119.362 176.21 108.569 183.706 97.086 190.135" fill="url(#paint12_linear_8:6)"/>
<path d="M79.3271 190.579V190.578C94.0652 183.834 107.816 175.323 120.276 165.283C105.884 161.011 91.6768 156.306 79.3271 150.534C79.3271 150.534 79.3271 150.534 79.3271 150.534V150.535C66.977 156.306 52.7706 161.012 38.3785 165.283C50.8379 175.324 64.589 183.834 79.3271 190.579Z" fill="url(#paint13_linear_8:6)"/>
<path d="M79.3266 196.111V196.112C79.3266 196.112 58.1951 200.207 48.2201 199.254C52.4863 201.597 56.5186 202.85 59.3682 203.569C59.3606 203.571 59.353 203.574 59.345 203.577C59.4755 203.609 59.61 203.63 59.741 203.662C60.9442 203.957 61.9343 204.164 62.5674 204.302L62.6134 204.279C68.0139 205.382 73.5966 206 79.3266 206V205.999C85.0566 205.999 90.6393 205.382 96.0398 204.279L96.0859 204.301C96.7189 204.163 97.7091 203.956 98.9122 203.661C99.0432 203.63 99.1777 203.608 99.3082 203.576C99.3002 203.574 99.2926 203.571 99.285 203.568C102.135 202.849 106.167 201.597 110.433 199.254C100.458 200.206 79.3266 196.111 79.3266 196.111" fill="url(#paint14_linear_8:6)"/>
<path d="M110.786 46.9703C112.228 45.0395 113.569 43.0337 114.937 41.0478C115.371 23.9025 95.2508 6.46545 95.2508 6.46545C91.8302 11.634 88.2011 16.6556 84.3252 21.4771C92.3103 30.7834 101.17 39.3211 110.786 46.9703" fill="url(#paint15_linear_8:6)"/>
<path d="M157.323 138.506C157.276 138.566 157.202 138.567 157.138 138.589C150.816 146.676 143.956 154.326 136.463 161.346C137.916 161.759 143.954 163.17 149.567 159.969C154.411 157.207 157.446 145.029 158.652 139.173C158.609 138.343 157.873 137.806 157.323 138.506" fill="url(#paint16_linear_8:6)"/>
<path d="M147.326 116.53C155.667 118.18 154.241 93.8656 153.387 84.4775C153.24 81.9182 150.395 81.1647 149.145 83.0414C149.009 83.2459 148.89 83.3837 148.778 83.4996C142.617 92.8032 135.744 101.599 128.142 109.733C134.368 112.345 140.783 114.583 147.326 116.53Z" fill="url(#paint17_linear_8:6)"/>
<path d="M130.098 37.2053C129.499 36.2433 127.701 35.6307 126.655 37.3038C126.563 37.4503 126.48 37.5352 126.402 37.5948C123.41 42.4104 120.28 47.1326 116.893 51.6615C123.514 56.512 130.475 60.9234 137.699 64.9219C139.367 56.8606 133.129 43.1973 130.098 37.2053" fill="url(#paint18_linear_8:6)"/>
<defs>
<linearGradient id="paint0_linear_8:6" x1="43.9322" y1="106.394" x2="43.9322" y2="57.7083" gradientUnits="userSpaceOnUse">
<stop offset="0.497917" stop-color="white"/>
<stop offset="1" stop-color="#30706C" stop-opacity="0"/>
</linearGradient>
<linearGradient id="paint1_linear_8:6" x1="36.933" y1="159.316" x2="36.933" y2="115.597" gradientUnits="userSpaceOnUse">
<stop offset="0.497917" stop-color="#4233EE"/>
<stop offset="1" stop-color="#30706C" stop-opacity="0"/>
</linearGradient>
<linearGradient id="paint2_linear_8:6" x1="79.3279" y1="139.15" x2="79.3279" y2="92.4545" gradientUnits="userSpaceOnUse">
<stop offset="0.497917" stop-color="#4233EE"/>
<stop offset="1" stop-color="#30706C" stop-opacity="0"/>
</linearGradient>
<linearGradient id="paint3_linear_8:6" x1="35.7677" y1="194.398" x2="35.7677" y2="167.745" gradientUnits="userSpaceOnUse">
<stop offset="0.497917" stop-color="#EB2222"/>
<stop offset="1" stop-color="#30706C" stop-opacity="0"/>
</linearGradient>
<linearGradient id="paint4_linear_8:6" x1="59.0174" y1="46.9703" x2="59.0174" y2="6.46503" gradientUnits="userSpaceOnUse">
<stop offset="0.497917" stop-color="#006660"/>
<stop offset="1" stop-color="#30706C" stop-opacity="0"/>
</linearGradient>
<linearGradient id="paint5_linear_8:6" x1="79.325" y1="16.8304" x2="79.325" y2="0.491535" gradientUnits="userSpaceOnUse">
<stop offset="0.497917" stop-color="#006660"/>
<stop offset="1" stop-color="#30706C" stop-opacity="0"/>
</linearGradient>
<linearGradient id="paint6_linear_8:6" x1="11.0943" y1="162.013" x2="11.0943" y2="138.183" gradientUnits="userSpaceOnUse">
<stop offset="0.497917" stop-color="#006660"/>
<stop offset="1" stop-color="#30706C" stop-opacity="0"/>
</linearGradient>
<linearGradient id="paint7_linear_8:6" x1="17.5562" y1="116.61" x2="17.5562" y2="81.9963" gradientUnits="userSpaceOnUse">
<stop offset="0.497917" stop-color="#006660"/>
<stop offset="1" stop-color="#30706C" stop-opacity="0"/>
</linearGradient>
<linearGradient id="paint8_linear_8:6" x1="31.2153" y1="64.9219" x2="31.2153" y2="36.2569" gradientUnits="userSpaceOnUse">
<stop offset="0.497917" stop-color="#006660"/>
<stop offset="1" stop-color="#30706C" stop-opacity="0"/>
</linearGradient>
<linearGradient id="paint9_linear_8:6" x1="114.719" y1="106.394" x2="114.719" y2="57.7083" gradientUnits="userSpaceOnUse">
<stop offset="0.497917" stop-color="white"/>
<stop offset="1" stop-color="#30706C" stop-opacity="0"/>
</linearGradient>
<linearGradient id="paint10_linear_8:6" x1="121.719" y1="159.316" x2="121.719" y2="115.596" gradientUnits="userSpaceOnUse">
<stop offset="0.497917" stop-color="#4233EE"/>
<stop offset="1" stop-color="#30706C" stop-opacity="0"/>
</linearGradient>
<linearGradient id="paint11_linear_8:6" x1="79.3266" y1="80.087" x2="79.3266" y2="29.9991" gradientUnits="userSpaceOnUse">
<stop offset="0.497917" stop-color="white"/>
<stop offset="1" stop-color="#30706C" stop-opacity="0"/>
</linearGradient>
<linearGradient id="paint12_linear_8:6" x1="122.885" y1="194.398" x2="122.885" y2="167.745" gradientUnits="userSpaceOnUse">
<stop offset="0.497917" stop-color="#EB2222"/>
<stop offset="1" stop-color="#30706C" stop-opacity="0"/>
</linearGradient>
<linearGradient id="paint13_linear_8:6" x1="79.3271" y1="190.579" x2="79.3271" y2="150.534" gradientUnits="userSpaceOnUse">
<stop offset="0.497917" stop-color="#EB2222"/>
<stop offset="1" stop-color="#30706C" stop-opacity="0"/>
</linearGradient>
<linearGradient id="paint14_linear_8:6" x1="79.3266" y1="206" x2="79.3266" y2="196.111" gradientUnits="userSpaceOnUse">
<stop offset="0.497917" stop-color="#006660"/>
<stop offset="1" stop-color="#30706C" stop-opacity="0"/>
</linearGradient>
<linearGradient id="paint15_linear_8:6" x1="99.6343" y1="46.9703" x2="99.6343" y2="6.46545" gradientUnits="userSpaceOnUse">
<stop offset="0.497917" stop-color="#006660"/>
<stop offset="1" stop-color="#30706C" stop-opacity="0"/>
</linearGradient>
<linearGradient id="paint16_linear_8:6" x1="147.558" y1="162.013" x2="147.558" y2="138.183" gradientUnits="userSpaceOnUse">
<stop offset="0.497917" stop-color="#006660"/>
<stop offset="1" stop-color="#30706C" stop-opacity="0"/>
</linearGradient>
<linearGradient id="paint17_linear_8:6" x1="141.096" y1="116.61" x2="141.096" y2="81.9961" gradientUnits="userSpaceOnUse">
<stop offset="0.497917" stop-color="#006660"/>
<stop offset="1" stop-color="#30706C" stop-opacity="0"/>
</linearGradient>
<linearGradient id="paint18_linear_8:6" x1="127.435" y1="64.9219" x2="127.435" y2="36.2572" gradientUnits="userSpaceOnUse">
<stop offset="0.497917" stop-color="#006660"/>
<stop offset="1" stop-color="#30706C" stop-opacity="0"/>
</linearGradient>
</defs>
</svg>
