<svg width="45" height="59" viewBox="0 0 45 59" fill="none" xmlns="http://www.w3.org/2000/svg">
<path d="M20.4523 24.4391C17.7297 22.1419 15.2316 19.5938 12.993 16.828C10.2125 18.8691 7.23823 20.6641 4.09912 22.175C5.99615 25.1374 8.17746 27.901 10.6067 30.4319C14.1134 28.7831 17.4089 26.7667 20.4523 24.4391" fill="url(#paint0_linear_359:148)"/>
<path d="M8.69593 45.2197C12.648 44.1585 16.4778 42.6665 20.0169 40.7899C16.4245 38.5634 13.0983 35.9527 10.1093 33.0034C7.07715 34.3277 3.90615 35.3904 0.623047 36.1692C2.98516 39.4817 5.65449 42.5204 8.69593 45.2197Z" fill="#FF3E28"/>
<path d="M22.1661 39.5847V39.5846C25.7767 37.4541 29.1135 34.9159 32.1181 32.0376C28.5736 30.3121 25.0882 28.5064 22.1661 26.5368V26.537C19.2439 28.5066 15.7587 30.3123 12.2141 32.0378C15.2187 34.9162 18.5555 37.4542 22.1661 39.5847Z" fill="url(#paint1_linear_359:148)"/>
<path d="M17.2033 53.831C13.9947 52.0347 10.9789 49.9402 8.20003 47.5749C6.42674 48.0122 4.61955 48.3622 2.7854 48.629C2.92122 48.8361 3.07259 49.0318 3.21502 49.2342C4.39121 50.8274 7.80633 55.0222 11.1611 55.0222C15.302 55.0222 17.1891 53.8304 17.1891 53.8304L17.2033 53.831" fill="url(#paint2_linear_359:148)"/>
<path d="M20.7686 6.70398C19.6856 5.35673 18.6715 3.95357 17.7157 2.50925C17.7157 2.50925 12.0938 7.38171 12.2151 12.1724C12.5972 12.7273 12.9719 13.2879 13.3747 13.8274C16.0618 11.6899 18.5374 9.3044 20.7686 6.70398Z" fill="url(#paint3_linear_359:148)"/>
<path d="M22.1653 5.40576V5.40565C22.8791 4.50171 23.5618 3.57238 24.2301 2.63317C24.3944 1.13526 22.1653 0.840279 22.1653 0.840279V0.840387C22.1653 0.840387 19.9362 1.13548 20.1004 2.63328C20.7688 3.5726 21.4515 4.50183 22.1653 5.40576" fill="url(#paint4_linear_359:148)"/>
<path d="M6.20003 45.7866C4.10632 43.8252 2.18948 41.6876 0.423017 39.4278C0.405005 39.4218 0.384418 39.4212 0.37144 39.4048C0.217717 39.2091 0.012083 39.3591 0 39.591C0.336869 41.2274 1.18492 44.6303 2.53855 45.402C4.10687 46.2961 5.79402 45.9021 6.20003 45.7866Z" fill="url(#paint5_linear_359:148)"/>
<path d="M3.16499 33.2643C4.99299 32.7201 6.78575 32.0946 8.52536 31.365C6.4011 29.0922 4.48058 26.6343 2.7592 24.0348C2.72776 24.0023 2.69465 23.9639 2.65649 23.9066C2.30732 23.3823 1.5123 23.5928 1.47124 24.3079C1.23272 26.9313 0.834312 33.7253 3.16499 33.2643Z" fill="url(#paint6_linear_359:148)"/>
<path d="M11.668 15.1382C10.7216 13.8726 9.84705 12.5531 9.0112 11.2077C8.98916 11.191 8.966 11.1673 8.94038 11.1263C8.64792 10.6587 8.14581 10.8299 7.97844 11.0988C7.13151 12.773 5.38831 16.5909 5.85452 18.8435C7.87305 17.7262 9.81807 16.4935 11.668 15.1382" fill="url(#paint7_linear_359:148)"/>
<path d="M23.8787 24.4392C26.9221 26.7667 30.2175 28.7831 33.7243 30.4319C36.1535 27.9011 38.3348 25.1374 40.2319 22.1751C37.0927 20.6641 34.1184 18.8691 31.338 16.828C29.0994 19.5939 26.6012 22.1419 23.8787 24.4392" fill="url(#paint8_linear_359:148)"/>
<path d="M43.7081 36.1691C40.425 35.3904 37.254 34.3276 34.2218 33.0033C31.2328 35.9526 27.9067 38.5633 24.3142 40.7898C27.8533 42.6663 31.6831 44.1585 35.6352 45.2197C38.6766 42.5204 41.3459 39.4816 43.7081 36.1691" fill="url(#paint9_linear_359:148)"/>
<path d="M22.1658 23.0809C24.8992 20.8102 27.4 18.2744 29.6345 15.5172C26.9285 13.3673 24.6081 11.3794 22.1658 9.08528V9.08551C19.7234 11.3796 17.4031 13.3674 14.697 15.5173C16.9315 18.2746 19.4323 20.8103 22.1658 23.0811V23.0809" fill="url(#paint10_linear_359:148)"/>
<path d="M27.1282 53.831L27.1424 53.8304C27.1424 53.8304 29.0295 55.0222 33.1703 55.0222C36.5252 55.0222 39.9403 50.8273 41.1165 49.2342C41.2589 49.0317 41.4103 48.836 41.5461 48.6289C39.7119 48.3621 37.9047 48.0121 36.1314 47.5749C33.3526 49.9402 30.3368 52.0346 27.1282 53.831" fill="url(#paint11_linear_359:148)"/>
<path d="M22.1659 53.9551V53.9549C26.2841 52.0703 30.1265 49.6921 33.6079 46.8867C29.5864 45.6932 25.6167 44.3783 22.1659 42.7655C22.1659 42.7656 22.1659 42.7656 22.1659 42.7656V42.7658C18.715 44.3785 14.7454 45.6933 10.7239 46.8868C14.2053 49.6923 18.0477 52.0704 22.1659 53.9551Z" fill="url(#paint12_linear_359:148)"/>
<path d="M22.1657 55.5009V55.5011C22.1657 55.5011 16.2611 56.6453 13.4738 56.3792C14.6659 57.0338 15.7926 57.3839 16.5889 57.5848C16.5867 57.5854 16.5846 57.5863 16.5824 57.587C16.6189 57.596 16.6564 57.602 16.693 57.6107C17.0292 57.6932 17.3059 57.751 17.4828 57.7896L17.4957 57.7832C19.0047 58.0915 20.5646 58.2642 22.1657 58.2642V58.2639C23.7668 58.2639 25.3268 58.0913 26.8358 57.7831L26.8487 57.7893C27.0255 57.7507 27.3022 57.6929 27.6384 57.6106C27.675 57.6017 27.7126 57.5958 27.7491 57.5868C27.7468 57.5861 27.7447 57.5853 27.7426 57.5845C28.5388 57.3836 29.6657 57.0337 30.8576 56.3791C28.0704 56.6451 22.1657 55.5009 22.1657 55.5009" fill="url(#paint13_linear_359:148)"/>
<path d="M30.9564 13.8274C31.3592 13.2879 31.7338 12.7274 32.116 12.1725C32.2373 7.38171 26.6154 2.50937 26.6154 2.50937C25.6596 3.95358 24.6455 5.35673 23.5625 6.70398C25.7937 9.3044 28.2693 11.69 30.9564 13.8274" fill="url(#paint14_linear_359:148)"/>
<path d="M43.9597 39.4048C43.9467 39.4213 43.9261 39.4217 43.9081 39.4277C42.1417 41.6876 40.2248 43.8251 38.1311 45.7865C38.5371 45.902 40.2243 46.2962 41.7926 45.4019C43.1462 44.6302 43.9943 41.2274 44.3311 39.5909C44.3191 39.359 44.1134 39.2091 43.9597 39.4048" fill="url(#paint15_linear_359:148)"/>
<path d="M41.1663 33.2643C43.497 33.7253 43.0986 26.9312 42.86 24.3079C42.819 23.5928 42.024 23.3822 41.6748 23.9066C41.6366 23.9638 41.6035 24.0023 41.5721 24.0347C39.8507 26.6343 37.9302 29.0921 35.8059 31.3649C37.5455 32.0946 39.3383 32.7201 41.1663 33.2643Z" fill="url(#paint16_linear_359:148)"/>
<path d="M36.3524 11.0988C36.185 10.83 35.6828 10.6589 35.3905 11.1264C35.3648 11.1673 35.3417 11.191 35.3196 11.2077C34.4838 12.5532 33.6092 13.8728 32.6628 15.1382C34.5128 16.4936 36.4578 17.7262 38.4763 18.8435C38.9425 16.591 37.1993 12.7731 36.3524 11.0988" fill="url(#paint17_linear_359:148)"/>
<defs>
<linearGradient id="paint0_linear_359:148" x1="12.2757" y1="30.4319" x2="12.2757" y2="16.828" gradientUnits="userSpaceOnUse">
<stop offset="0.497917" stop-color="#006660"/>
<stop offset="1" stop-color="#30706C" stop-opacity="0"/>
</linearGradient>
<linearGradient id="paint1_linear_359:148" x1="22.1661" y1="39.5847" x2="22.1661" y2="26.5368" gradientUnits="userSpaceOnUse">
<stop offset="0.497917" stop-color="#006660"/>
<stop offset="1" stop-color="#30706C" stop-opacity="0"/>
</linearGradient>
<linearGradient id="paint2_linear_359:148" x1="9.99436" y1="55.0222" x2="9.99436" y2="47.5749" gradientUnits="userSpaceOnUse">
<stop offset="0.497917" stop-color="#006660"/>
<stop offset="1" stop-color="#30706C" stop-opacity="0"/>
</linearGradient>
<linearGradient id="paint3_linear_359:148" x1="16.4909" y1="13.8274" x2="16.4909" y2="2.50925" gradientUnits="userSpaceOnUse">
<stop offset="0.497917" stop-color="#006660"/>
<stop offset="1" stop-color="#30706C" stop-opacity="0"/>
</linearGradient>
<linearGradient id="paint4_linear_359:148" x1="22.1653" y1="5.40576" x2="22.1653" y2="0.840279" gradientUnits="userSpaceOnUse">
<stop offset="0.497917" stop-color="#006660"/>
<stop offset="1" stop-color="#30706C" stop-opacity="0"/>
</linearGradient>
<linearGradient id="paint5_linear_359:148" x1="3.10001" y1="45.9729" x2="3.10001" y2="39.3145" gradientUnits="userSpaceOnUse">
<stop offset="0.497917" stop-color="#006660"/>
<stop offset="1" stop-color="#30706C" stop-opacity="0"/>
</linearGradient>
<linearGradient id="paint6_linear_359:148" x1="4.90562" y1="33.2866" x2="4.90562" y2="23.6146" gradientUnits="userSpaceOnUse">
<stop offset="0.497917" stop-color="#006660"/>
<stop offset="1" stop-color="#30706C" stop-opacity="0"/>
</linearGradient>
<linearGradient id="paint7_linear_359:148" x1="8.72231" y1="18.8435" x2="8.72231" y2="10.8338" gradientUnits="userSpaceOnUse">
<stop offset="0.497917" stop-color="#006660"/>
<stop offset="1" stop-color="#30706C" stop-opacity="0"/>
</linearGradient>
<linearGradient id="paint8_linear_359:148" x1="32.0553" y1="30.4319" x2="32.0553" y2="16.828" gradientUnits="userSpaceOnUse">
<stop offset="0.497917" stop-color="#006660"/>
<stop offset="1" stop-color="#30706C" stop-opacity="0"/>
</linearGradient>
<linearGradient id="paint9_linear_359:148" x1="34.0111" y1="45.2197" x2="34.0111" y2="33.0033" gradientUnits="userSpaceOnUse">
<stop offset="0.497917" stop-color="#006660"/>
<stop offset="1" stop-color="#30706C" stop-opacity="0"/>
</linearGradient>
<linearGradient id="paint10_linear_359:148" x1="22.1658" y1="23.0811" x2="22.1658" y2="9.08528" gradientUnits="userSpaceOnUse">
<stop offset="0.497917" stop-color="#006660"/>
<stop offset="1" stop-color="#30706C" stop-opacity="0"/>
</linearGradient>
<linearGradient id="paint11_linear_359:148" x1="34.3371" y1="55.0222" x2="34.3371" y2="47.5749" gradientUnits="userSpaceOnUse">
<stop offset="0.497917" stop-color="#006660"/>
<stop offset="1" stop-color="#30706C" stop-opacity="0"/>
</linearGradient>
<linearGradient id="paint12_linear_359:148" x1="22.1659" y1="53.9551" x2="22.1659" y2="42.7655" gradientUnits="userSpaceOnUse">
<stop offset="0.497917" stop-color="#006660"/>
<stop offset="1" stop-color="#30706C" stop-opacity="0"/>
</linearGradient>
<linearGradient id="paint13_linear_359:148" x1="22.1657" y1="58.2642" x2="22.1657" y2="55.5009" gradientUnits="userSpaceOnUse">
<stop offset="0.497917" stop-color="#006660"/>
<stop offset="1" stop-color="#30706C" stop-opacity="0"/>
</linearGradient>
<linearGradient id="paint14_linear_359:148" x1="27.8402" y1="13.8274" x2="27.8402" y2="2.50937" gradientUnits="userSpaceOnUse">
<stop offset="0.497917" stop-color="#006660"/>
<stop offset="1" stop-color="#30706C" stop-opacity="0"/>
</linearGradient>
<linearGradient id="paint15_linear_359:148" x1="41.2311" y1="45.9729" x2="41.2311" y2="39.3144" gradientUnits="userSpaceOnUse">
<stop offset="0.497917" stop-color="#006660"/>
<stop offset="1" stop-color="#30706C" stop-opacity="0"/>
</linearGradient>
<linearGradient id="paint16_linear_359:148" x1="39.4256" y1="33.2866" x2="39.4256" y2="23.6146" gradientUnits="userSpaceOnUse">
<stop offset="0.497917" stop-color="#006660"/>
<stop offset="1" stop-color="#30706C" stop-opacity="0"/>
</linearGradient>
<linearGradient id="paint17_linear_359:148" x1="35.6085" y1="18.8435" x2="35.6085" y2="10.8339" gradientUnits="userSpaceOnUse">
<stop offset="0.497917" stop-color="#006660"/>
<stop offset="1" stop-color="#30706C" stop-opacity="0"/>
</linearGradient>
</defs>
</svg>
